<?xml version="1.0" standalone="no"?>
<!DOCTYPE svg PUBLIC "-//W3C//DTD SVG 20010904//EN"
 "http://www.w3.org/TR/2001/REC-SVG-20010904/DTD/svg10.dtd">
<svg version="1.0" xmlns="http://www.w3.org/2000/svg"
 width="1278.000000pt" height="692.000000pt" viewBox="0 0 1278.000000 692.000000"
 preserveAspectRatio="xMidYMid meet">
<metadata>
Created by potrace 1.16, written by Peter Selinger 2001-2019
</metadata>
<g transform="translate(0.000000,692.000000) scale(0.100000,-0.100000)"
fill="#000000" stroke="none">
<path d="M2450 2890 l0 -1600 3950 0 3950 0 0 1600 0 1600 -3950 0 -3950 0 0
-1600z m7820 385 l0 -1135 -3870 0 -3870 0 0 1135 0 1134 3870 0 3870 0 0
-1134z m-5136 -1287 c-3 -4 -12 -8 -20 -8 -8 0 -23 -9 -34 -20 -18 -18 -20
-33 -20 -130 l0 -110 145 0 146 0 -3 122 -3 122 -32 10 c-18 5 -33 15 -33 22
0 11 26 14 120 14 94 0 120 -3 120 -14 0 -7 -15 -17 -32 -22 l-33 -10 -3 -282
-2 -281 32 -9 c18 -4 34 -15 36 -23 2 -12 -19 -14 -118 -15 -109 0 -120 2
-120 18 0 11 7 18 19 18 50 0 51 4 51 146 l0 134 -122 0 c-181 0 -168 10 -168
-129 0 -64 4 -122 9 -129 4 -7 21 -16 37 -21 16 -4 29 -14 29 -22 0 -11 -23
-14 -120 -14 -106 0 -120 2 -123 18 -3 12 3 17 20 17 53 1 53 1 56 257 2 131
1 257 -3 280 -6 39 -9 43 -41 49 -19 3 -34 12 -34 20 0 10 27 14 118 16 108 3
139 -3 126 -24z m-419 3 c94 -43 126 -128 90 -232 -9 -24 -26 -54 -38 -68 -52
-57 -171 -80 -217 -43 -34 27 -18 40 40 34 49 -4 52 -3 90 37 37 38 40 46 40
97 0 100 -40 144 -131 144 l-56 0 -7 -52 c-9 -77 -7 -405 3 -457 9 -47 23 -61
59 -61 15 0 22 -6 22 -19 0 -17 -9 -19 -125 -19 -111 0 -125 2 -125 17 0 10
12 21 33 26 l32 10 3 277 2 277 -39 11 c-29 8 -39 15 -35 25 5 12 34 15 163
15 130 0 163 -3 196 -19z m1230 -46 c12 -33 43 -116 70 -185 26 -69 63 -165
81 -215 52 -136 51 -135 90 -151 64 -27 37 -39 -86 -39 -83 0 -114 3 -118 13
-2 7 9 17 27 23 39 14 39 30 2 129 l-27 75 -96 3 c-110 3 -106 5 -143 -92 -34
-89 -33 -103 8 -114 17 -4 32 -15 32 -23 0 -11 -20 -14 -105 -14 -86 0 -105 3
-105 15 0 8 9 16 20 18 11 2 26 9 34 15 17 15 63 115 65 143 0 12 3 20 5 18 3
-3 14 21 26 53 37 99 146 376 151 385 3 5 15 8 26 6 15 -2 27 -20 43 -63z
m664 55 c163 -46 186 -223 42 -322 l-23 -17 33 -58 c46 -80 165 -201 207 -209
23 -5 32 -12 30 -23 -8 -40 -134 -15 -199 39 -20 16 -69 74 -110 129 -70 96
-113 132 -138 116 -12 -7 -15 -223 -3 -242 4 -6 23 -15 42 -20 20 -5 35 -16
35 -24 0 -11 -24 -14 -127 -16 -121 -2 -128 -1 -128 18 0 13 7 19 23 19 46 0
46 3 47 260 1 135 1 259 0 277 0 28 -4 34 -32 41 -18 4 -34 16 -36 25 -3 15
11 17 150 17 84 0 168 -4 187 -10z m631 -230 c52 -132 98 -240 101 -240 3 0
13 17 21 38 9 20 45 107 80 192 35 85 70 176 77 203 l14 47 103 0 c83 0 104
-3 104 -14 0 -8 -13 -17 -30 -21 -16 -4 -32 -11 -35 -16 -8 -13 -5 -465 3
-514 6 -34 12 -42 42 -51 19 -7 35 -18 35 -25 0 -10 -28 -14 -122 -14 -113 -1
-123 0 -123 17 0 11 7 18 19 18 51 0 51 -2 51 214 0 202 -6 276 -21 276 -4 0
-11 -10 -15 -22 -4 -13 -26 -68 -49 -123 -23 -55 -68 -162 -99 -237 -49 -115
-77 -160 -92 -146 -2 3 -99 247 -197 498 l-22 55 -6 -110 c-4 -60 -7 -172 -8
-247 -1 -126 1 -138 18 -148 11 -5 29 -10 40 -10 14 0 21 -6 21 -20 0 -18 -7
-19 -117 -17 -99 2 -118 5 -121 18 -2 12 8 18 37 23 36 5 41 10 50 44 5 20 11
146 15 278 l5 241 -25 12 c-14 6 -34 11 -44 11 -11 0 -20 7 -20 15 0 12 19 15
108 15 l107 0 95 -240z m918 228 c2 -26 215 -574 230 -590 8 -10 23 -18 32
-18 18 0 35 -26 22 -33 -4 -2 -58 -5 -119 -5 -93 0 -113 2 -113 14 0 8 14 20
30 25 38 14 38 30 1 129 l-27 75 -95 3 c-52 1 -99 -1 -105 -5 -13 -10 -64
-147 -64 -173 0 -13 10 -22 33 -28 17 -4 32 -15 32 -23 0 -11 -20 -14 -105
-14 -85 0 -105 3 -105 14 0 8 14 18 31 23 18 4 34 14 37 21 57 139 107 266
143 362 25 66 49 129 54 140 5 11 16 37 24 58 11 28 21 37 39 37 13 0 24 -6
25 -12z"/>
<path d="M2920 3286 l0 -736 205 0 205 0 0 229 0 228 93 7 c179 13 280 50 374
139 62 58 105 141 123 234 16 82 8 273 -14 333 -46 126 -148 216 -299 267 -81
27 -86 27 -384 31 l-303 4 0 -736z m526 425 c43 -26 59 -77 59 -186 -1 -149
-33 -204 -125 -213 l-50 -5 0 212 0 211 43 0 c24 0 56 -8 73 -19z"/>
<path d="M4000 3285 l0 -735 210 0 210 0 2 298 3 297 103 3 102 3 0 -301 0
-300 210 0 210 0 0 735 0 735 -210 0 -210 0 0 -275 0 -275 -105 0 -105 0 0
275 0 275 -210 0 -210 0 0 -735z"/>
<path d="M5406 4003 c-5 -17 -47 -194 -256 -1091 -44 -189 -80 -347 -80 -353
0 -6 78 -8 208 -7 l207 3 19 143 20 142 127 0 c92 0 128 -3 132 -12 2 -7 13
-73 22 -145 l19 -133 208 0 c160 0 208 3 208 13 0 6 -56 255 -125 552 -69 297
-144 622 -167 723 l-42 182 -247 0 c-227 0 -248 -1 -253 -17z m289 -568 c20
-137 38 -262 41 -277 l6 -28 -86 0 c-62 0 -86 3 -86 13 0 17 69 496 77 532 8
40 7 45 48 -240z"/>
<path d="M6260 3286 l0 -736 210 0 210 0 0 266 0 265 22 -3 c18 -2 38 -44 126
-265 l104 -263 400 0 400 0 -4 526 -3 527 42 -344 c23 -189 48 -391 55 -449
l13 -105 198 -3 c108 -1 197 1 197 4 0 13 100 879 103 887 1 4 0 -229 -2 -518
l-3 -525 395 0 c307 0 396 3 400 13 2 6 13 72 22 145 l19 132 127 0 c148 0
129 21 155 -167 l17 -123 210 0 210 0 -6 33 c-3 17 -56 246 -117 507 -60 261
-134 577 -163 703 l-52 227 -249 -2 -249 -3 -13 -55 c-11 -43 -148 -631 -291
-1247 -9 -40 -18 -71 -20 -70 -3 4 -45 718 -63 1082 -6 116 -13 229 -16 253
l-5 42 -254 0 -255 0 -4 -22 c-3 -13 -21 -207 -41 -433 -20 -225 -39 -425 -43
-444 -6 -26 -12 8 -25 135 -10 93 -31 290 -48 437 -16 147 -29 281 -29 298 l0
29 -257 -2 -258 -3 -37 -645 c-20 -355 -37 -670 -37 -699 -1 -32 -5 -51 -10
-45 -11 12 -251 523 -251 535 0 5 4 9 9 9 4 0 28 18 53 39 122 108 169 339
107 524 -35 105 -93 169 -197 222 -106 53 -144 58 -484 63 l-318 4 0 -736z
m526 434 c54 -27 74 -73 73 -173 -1 -128 -31 -172 -127 -184 l-52 -6 0 192 0
191 32 0 c17 0 51 -9 74 -20z m2523 -110 c7 -47 25 -170 40 -275 16 -104 27
-193 24 -197 -2 -5 -40 -8 -84 -8 -60 0 -79 3 -79 14 0 17 69 504 76 535 7 34
10 25 23 -69z"/>
<path d="M5844 1766 c-20 -53 -35 -98 -33 -100 6 -6 65 -10 111 -8 l38 2 -35
97 c-20 53 -37 98 -39 100 -2 2 -21 -39 -42 -91z"/>
<path d="M6442 1839 l3 -124 65 -3 c62 -3 67 -1 98 29 18 17 35 43 38 56 11
43 -3 105 -30 132 -22 22 -37 26 -101 29 l-76 4 3 -123z"/>
<path d="M8076 1766 c-21 -53 -35 -100 -31 -104 7 -7 134 -6 141 1 4 3 -34
110 -60 171 -12 29 -13 29 -50 -68z"/>
</g>
</svg>
